<svg xmlns="http://www.w3.org/2000/svg" xmlns:xlink="http://www.w3.org/1999/xlink" width="500" zoomAndPan="magnify" viewBox="0 0 375 374.999991" height="500" preserveAspectRatio="xMidYMid meet" version="1.0"><defs><clipPath id="6cc4acd7f6"><path d="M 28 0 L 346.703125 0 L 346.703125 375 L 28 375 Z M 28 0 " clip-rule="nonzero"/></clipPath></defs><path fill="#141414" d="M 320.335938 174.089844 L 267.199219 227.671875 L 214.058594 227.671875 L 167.558594 274.550781 L 167.558594 227.671875 L 107.777344 227.671875 L 107.777344 26.773438 L 320.335938 26.773438 Z M 320.335938 174.089844 " fill-opacity="1" fill-rule="nonzero"/><g clip-path="url(#6cc4acd7f6)"><path fill="#b4b4b4" d="M 94.484375 -0.015625 L 346.894531 -0.015625 L 346.894531 187.5 L 227.347656 308.042969 L 174.207031 308.042969 L 107.777344 375.011719 L 107.777344 308.042969 L 28.054688 308.042969 L 28.054688 66.949219 Z M 320.335938 174.089844 L 320.335938 26.773438 L 107.777344 26.773438 L 107.777344 227.671875 L 167.558594 227.671875 L 167.558594 274.550781 L 214.058594 227.671875 L 267.199219 227.671875 Z M 180.828125 73.652344 L 207.410156 73.652344 L 207.410156 154.007812 L 180.828125 154.007812 Z M 253.910156 73.652344 L 280.488281 73.652344 L 280.488281 154.007812 L 253.910156 154.007812 Z M 253.910156 73.652344 " fill-opacity="1" fill-rule="evenodd"/></g></svg>