<svg xmlns="http://www.w3.org/2000/svg" xmlns:xlink="http://www.w3.org/1999/xlink" width="500" zoomAndPan="magnify" viewBox="0 0 375 374.999991" height="500" preserveAspectRatio="xMidYMid meet" version="1.0"><defs><clipPath id="a7ce14591f"><path d="M 5 48.75 L 369 48.75 L 369 326.25 L 5 326.25 Z M 5 48.75 " clip-rule="nonzero"/></clipPath></defs><g clip-path="url(#a7ce14591f)"><path fill="#b4b4b4" d="M 312.996094 71.835938 C 313.195312 71.910156 313.371094 72.0625 313.46875 72.261719 C 354.546875 132.699219 374.832031 200.878906 367.242188 279.359375 C 367.21875 279.683594 367.042969 279.984375 366.769531 280.1875 C 335.664062 303.046875 305.527344 316.921875 275.804688 326.121094 C 275.328125 326.257812 274.8125 326.09375 274.523438 325.679688 C 267.660156 316.132812 261.425781 306.046875 255.957031 295.46875 C 255.640625 294.839844 255.929688 294.101562 256.570312 293.851562 C 266.480469 290.109375 275.90625 285.628906 284.964844 280.335938 C 285.679688 279.921875 285.726562 278.890625 285.0625 278.402344 C 283.144531 276.972656 281.238281 275.46875 279.417969 273.972656 C 279.066406 273.699219 278.613281 273.636719 278.226562 273.824219 C 219.394531 301.011719 154.953125 301.011719 95.421875 273.824219 C 95.03125 273.648438 94.570312 273.710938 94.242188 273.988281 C 92.425781 275.480469 90.515625 276.972656 88.609375 278.402344 C 87.957031 278.890625 88.007812 279.921875 88.722656 280.335938 C 97.78125 285.53125 107.203125 290.109375 117.101562 293.863281 C 117.742188 294.113281 118.042969 294.839844 117.730469 295.46875 C 112.382812 306.066406 106.148438 316.144531 99.148438 325.691406 C 98.847656 326.09375 98.34375 326.257812 97.867188 326.121094 C 68.296875 316.921875 38.160156 303.046875 7.042969 280.1875 C 6.78125 279.984375 6.605469 279.671875 6.566406 279.34375 C 0.230469 211.453125 13.152344 142.710938 60.304688 72.253906 C 60.417969 72.0625 60.589844 71.910156 60.792969 71.835938 C 83.992188 61.171875 108.859375 53.332031 134.832031 48.863281 C 135.308594 48.789062 135.785156 49 136.023438 49.429688 C 139.234375 55.113281 142.910156 62.402344 145.382812 68.363281 C 172.769531 64.183594 200.585938 64.183594 228.542969 68.363281 C 231.027344 62.527344 234.566406 55.113281 237.765625 49.429688 C 238.003906 48.988281 238.476562 48.777344 238.957031 48.863281 C 264.949219 53.355469 289.808594 61.183594 312.996094 71.835938 Z M 126.625 238.003906 C 144.832031 238.003906 159.308594 221.542969 159.308594 201.328125 C 159.597656 181.269531 144.96875 164.667969 126.625 164.667969 C 108.40625 164.667969 93.925781 181.117188 93.925781 201.328125 C 93.925781 221.542969 108.695312 238.003906 126.625 238.003906 Z M 247.488281 238.003906 C 265.84375 238.003906 280.171875 221.542969 280.171875 201.328125 C 280.460938 181.269531 265.84375 164.667969 247.488281 164.667969 C 229.28125 164.667969 214.789062 181.117188 214.789062 201.328125 C 214.789062 221.542969 229.558594 238.003906 247.488281 238.003906 Z M 247.488281 238.003906 " fill-opacity="1" fill-rule="evenodd"/></g></svg>