<svg xmlns="http://www.w3.org/2000/svg" xmlns:xlink="http://www.w3.org/1999/xlink" width="500" zoomAndPan="magnify" viewBox="0 0 375 374.999991" height="500" preserveAspectRatio="xMidYMid meet" version="1.0"><defs><clipPath id="91eb08ebd0"><path d="M 0 9.203125 L 374 9.203125 L 374 365.453125 L 0 365.453125 Z M 0 9.203125 " clip-rule="nonzero"/></clipPath></defs><g clip-path="url(#91eb08ebd0)"><path fill="#ededed" d="M 99.332031 37.375 L 73.835938 11.878906 C 31.136719 44.417969 2.964844 94.695312 0.289062 151.839844 L 35.949219 151.839844 C 38.710938 104.59375 63.050781 63.226562 99.332031 37.375 Z M 338.160156 151.839844 L 373.816406 151.839844 C 371.144531 94.695312 342.972656 44.417969 300.273438 11.878906 L 274.863281 37.285156 C 311.058594 63.226562 335.394531 104.59375 338.160156 151.839844 Z M 302.945312 160.753906 C 302.945312 105.929688 264.878906 60.195312 213.796875 48.074219 L 213.796875 35.949219 C 213.796875 21.148438 201.851562 9.203125 187.054688 9.203125 C 172.253906 9.203125 160.308594 21.148438 160.308594 35.949219 L 160.308594 48.074219 C 109.230469 60.195312 71.164062 105.929688 71.164062 160.753906 L 71.164062 258.816406 L 35.503906 294.476562 L 35.503906 312.304688 L 338.605469 312.304688 L 338.605469 294.476562 L 302.945312 258.816406 Z M 187.054688 365.792969 C 189.550781 365.792969 191.957031 365.527344 194.273438 365.082031 C 205.863281 362.675781 215.402344 354.652344 219.949219 344.042969 C 221.734375 339.761719 222.714844 335.128906 222.714844 330.136719 L 151.394531 330.136719 C 151.394531 349.835938 167.351562 365.792969 187.054688 365.792969 Z M 187.054688 365.792969 " fill-opacity="1" fill-rule="nonzero"/></g></svg>