<svg xmlns="http://www.w3.org/2000/svg" xmlns:xlink="http://www.w3.org/1999/xlink" width="1920" zoomAndPan="magnify" viewBox="0 0 1440 809.999993" height="1080" preserveAspectRatio="xMidYMid meet" version="1.0"><defs><clipPath id="0d0157bf08"><path d="M 474.335938 93 L 1032.335938 93 L 1032.335938 594 L 474.335938 594 Z M 474.335938 93 " clip-rule="nonzero"/></clipPath></defs><g clip-path="url(#0d0157bf08)"><path fill="#f2f2f2" d="M 1015.589844 140.09375 L 940.808594 140.09375 L 940.808594 110.570312 C 940.816406 98.097656 935.917969 93.207031 923.453125 93.207031 L 580.757812 93.207031 C 568.292969 93.207031 563.394531 98.097656 563.394531 110.570312 L 563.394531 140.09375 L 490.933594 140.09375 C 478.964844 140.09375 474.265625 144.792969 474.265625 156.765625 L 474.265625 158.144531 C 478.097656 254.875 542 336.816406 638.804688 371.460938 C 659.675781 402.308594 685.210938 429.433594 716.214844 451.703125 C 712.347656 509.992188 691.78125 550.609375 659.261719 588.496094 C 656.761719 591.394531 656.644531 593.722656 661.632812 593.722656 L 842.589844 593.722656 C 847.574219 593.722656 847.453125 591.402344 844.957031 588.496094 C 812.429688 550.609375 791.863281 510.003906 787.996094 451.703125 C 818.65625 429.691406 843.957031 402.910156 864.699219 372.5 C 963.179688 338.488281 1028.378906 255.875 1032.257812 158.144531 L 1032.257812 156.765625 C 1032.265625 144.792969 1027.558594 140.09375 1015.589844 140.09375 Z M 511.027344 178.257812 C 510.738281 176.363281 511.265625 174.820312 514.007812 174.820312 L 567.1875 174.820312 C 575.359375 226.585938 588.929688 275.597656 609.46875 319.53125 C 555.945312 287.832031 520.015625 237.0625 511.027344 178.257812 Z M 995.488281 178.257812 C 986.320312 238.207031 949.15625 289.792969 893.90625 321.355469 C 914.925781 276.964844 928.746094 227.308594 937.015625 174.828125 L 992.507812 174.828125 C 995.257812 174.828125 995.785156 176.367188 995.488281 178.257812 Z M 995.488281 178.257812 " fill-opacity="1" fill-rule="nonzero"/></g><path fill="#f2f2f2" d="M 891.03125 611.078125 L 613.179688 611.078125 C 601.664062 611.078125 595.816406 616.949219 595.816406 628.441406 L 595.816406 670.703125 C 595.816406 682.210938 601.671875 688.066406 613.179688 688.066406 L 891.03125 688.066406 C 902.546875 688.066406 908.394531 682.210938 908.394531 670.703125 L 908.394531 628.441406 C 908.394531 616.941406 902.539062 611.078125 891.03125 611.078125 Z M 891.03125 611.078125 " fill-opacity="1" fill-rule="nonzero"/></svg>