<svg xmlns="http://www.w3.org/2000/svg" xmlns:xlink="http://www.w3.org/1999/xlink" width="1920" zoomAndPan="magnify" viewBox="0 0 1440 809.999993" height="1080" preserveAspectRatio="xMidYMid meet" version="1.0"><defs><g/><clipPath id="88ec79ac7a"><path d="M 0 16.671875 L 1440 16.671875 L 1440 623.398438 L 0 623.398438 Z M 0 16.671875 " clip-rule="nonzero"/></clipPath><clipPath id="f835884327"><path d="M 30 16.671875 L 1410 16.671875 C 1417.957031 16.671875 1425.585938 19.832031 1431.214844 25.460938 C 1436.839844 31.085938 1440 38.714844 1440 46.671875 L 1440 593.398438 C 1440 601.355469 1436.839844 608.988281 1431.214844 614.613281 C 1425.585938 620.238281 1417.957031 623.398438 1410 623.398438 L 30 623.398438 C 22.042969 623.398438 14.414062 620.238281 8.785156 614.613281 C 3.160156 608.988281 0 601.355469 0 593.398438 L 0 46.671875 C 0 38.714844 3.160156 31.085938 8.785156 25.460938 C 14.414062 19.832031 22.042969 16.671875 30 16.671875 Z M 30 16.671875 " clip-rule="nonzero"/></clipPath><clipPath id="e8e69d113f"><path d="M 0 0.671875 L 1440 0.671875 L 1440 607.398438 L 0 607.398438 Z M 0 0.671875 " clip-rule="nonzero"/></clipPath><clipPath id="ee3dce6c87"><path d="M 30 0.671875 L 1410 0.671875 C 1417.957031 0.671875 1425.585938 3.832031 1431.214844 9.460938 C 1436.839844 15.085938 1440 22.714844 1440 30.671875 L 1440 577.398438 C 1440 585.355469 1436.839844 592.988281 1431.214844 598.613281 C 1425.585938 604.238281 1417.957031 607.398438 1410 607.398438 L 30 607.398438 C 22.042969 607.398438 14.414062 604.238281 8.785156 598.613281 C 3.160156 592.988281 0 585.355469 0 577.398438 L 0 30.671875 C 0 22.714844 3.160156 15.085938 8.785156 9.460938 C 14.414062 3.832031 22.042969 0.671875 30 0.671875 Z M 30 0.671875 " clip-rule="nonzero"/></clipPath><clipPath id="d2ab023e35"><rect x="0" width="1440" y="0" height="608"/></clipPath><clipPath id="bfab39ed7c"><path d="M 0 16.671875 L 1440 16.671875 L 1440 623.355469 L 0 623.355469 Z M 0 16.671875 " clip-rule="nonzero"/></clipPath><clipPath id="68e568c868"><path d="M 30 16.671875 L 1409.992188 16.671875 C 1417.949219 16.671875 1425.578125 19.835938 1431.203125 25.460938 C 1436.832031 31.085938 1439.992188 38.71875 1439.992188 46.671875 L 1439.992188 593.398438 C 1439.992188 601.355469 1436.832031 608.984375 1431.203125 614.609375 C 1425.578125 620.234375 1417.949219 623.398438 1409.992188 623.398438 L 30 623.398438 C 22.042969 623.398438 14.414062 620.234375 8.785156 614.609375 C 3.160156 608.984375 0 601.355469 0 593.398438 L 0 46.671875 C 0 38.71875 3.160156 31.085938 8.785156 25.460938 C 14.414062 19.835938 22.042969 16.671875 30 16.671875 Z M 30 16.671875 " clip-rule="nonzero"/></clipPath><clipPath id="41d51f2daa"><path d="M 109.75 266.160156 L 319.621094 266.160156 L 319.621094 320.0625 L 109.75 320.0625 Z M 109.75 266.160156 " clip-rule="nonzero"/></clipPath><clipPath id="70225789b3"><path d="M 0.75 0.160156 L 210.621094 0.160156 L 210.621094 54.0625 L 0.75 54.0625 Z M 0.75 0.160156 " clip-rule="nonzero"/></clipPath><clipPath id="666e6e0aef"><rect x="0" width="211" y="0" height="55"/></clipPath><clipPath id="df3afa8c08"><path d="M 110.039062 266.160156 L 319.878906 266.160156 L 319.878906 319.925781 L 110.039062 319.925781 Z M 110.039062 266.160156 " clip-rule="nonzero"/></clipPath><clipPath id="51d7bd650d"><path d="M 109.75 216.539062 L 319.621094 216.539062 L 319.621094 270.441406 L 109.75 270.441406 Z M 109.75 216.539062 " clip-rule="nonzero"/></clipPath><clipPath id="83abccafcd"><path d="M 0.75 0.539062 L 210.621094 0.539062 L 210.621094 54.441406 L 0.75 54.441406 Z M 0.75 0.539062 " clip-rule="nonzero"/></clipPath><clipPath id="b2fc1690fd"><rect x="0" width="211" y="0" height="55"/></clipPath><clipPath id="df98ead49a"><path d="M 110.039062 216.539062 L 319.878906 216.539062 L 319.878906 270.308594 L 110.039062 270.308594 Z M 110.039062 216.539062 " clip-rule="nonzero"/></clipPath><clipPath id="9c7ef410b5"><path d="M 109.75 465.839844 L 319.621094 465.839844 L 319.621094 519.742188 L 109.75 519.742188 Z M 109.75 465.839844 " clip-rule="nonzero"/></clipPath><clipPath id="0978d04756"><path d="M 0.75 0.839844 L 210.621094 0.839844 L 210.621094 54.742188 L 0.75 54.742188 Z M 0.75 0.839844 " clip-rule="nonzero"/></clipPath><clipPath id="95da596088"><rect x="0" width="211" y="0" height="55"/></clipPath><clipPath id="4cca691c19"><path d="M 110.039062 465.839844 L 319.878906 465.839844 L 319.878906 519.605469 L 110.039062 519.605469 Z M 110.039062 465.839844 " clip-rule="nonzero"/></clipPath><clipPath id="b3d5d139b3"><path d="M 109.75 416.21875 L 319.621094 416.21875 L 319.621094 470.121094 L 109.75 470.121094 Z M 109.75 416.21875 " clip-rule="nonzero"/></clipPath><clipPath id="10463582b6"><path d="M 0.75 0.21875 L 210.621094 0.21875 L 210.621094 54.121094 L 0.75 54.121094 Z M 0.75 0.21875 " clip-rule="nonzero"/></clipPath><clipPath id="3870cf3ccf"><rect x="0" width="211" y="0" height="55"/></clipPath><clipPath id="6230e00ccc"><path d="M 110.039062 416.21875 L 319.878906 416.21875 L 319.878906 469.988281 L 110.039062 469.988281 Z M 110.039062 416.21875 " clip-rule="nonzero"/></clipPath><clipPath id="81c6574e12"><path d="M 634.035156 327.941406 L 843.90625 327.941406 L 843.90625 381.84375 L 634.035156 381.84375 Z M 634.035156 327.941406 " clip-rule="nonzero"/></clipPath><clipPath id="2e9a2ac46a"><path d="M 0.0351562 0.941406 L 209.90625 0.941406 L 209.90625 54.84375 L 0.0351562 54.84375 Z M 0.0351562 0.941406 " clip-rule="nonzero"/></clipPath><clipPath id="cbee14df21"><rect x="0" width="210" y="0" height="55"/></clipPath><clipPath id="d2739daaa9"><path d="M 634.328125 327.941406 L 844.167969 327.941406 L 844.167969 381.710938 L 634.328125 381.710938 Z M 634.328125 327.941406 " clip-rule="nonzero"/></clipPath><clipPath id="41c9b68628"><path d="M 634.035156 278.320312 L 843.90625 278.320312 L 843.90625 332.222656 L 634.035156 332.222656 Z M 634.035156 278.320312 " clip-rule="nonzero"/></clipPath><clipPath id="53f94a7441"><path d="M 0.0351562 0.320312 L 209.90625 0.320312 L 209.90625 54.222656 L 0.0351562 54.222656 Z M 0.0351562 0.320312 " clip-rule="nonzero"/></clipPath><clipPath id="605782ccf4"><rect x="0" width="210" y="0" height="55"/></clipPath><clipPath id="13fb5077ab"><path d="M 634.328125 278.320312 L 844.167969 278.320312 L 844.167969 332.089844 L 634.328125 332.089844 Z M 634.328125 278.320312 " clip-rule="nonzero"/></clipPath><clipPath id="0be3964aba"><path d="M 1072.542969 342.839844 L 1282.414062 342.839844 L 1282.414062 396.742188 L 1072.542969 396.742188 Z M 1072.542969 342.839844 " clip-rule="nonzero"/></clipPath><clipPath id="147a19c631"><path d="M 0.542969 0.839844 L 210.414062 0.839844 L 210.414062 54.742188 L 0.542969 54.742188 Z M 0.542969 0.839844 " clip-rule="nonzero"/></clipPath><clipPath id="d7dfc36774"><rect x="0" width="211" y="0" height="55"/></clipPath><clipPath id="a1f640768f"><path d="M 1072.835938 342.839844 L 1282.671875 342.839844 L 1282.671875 396.609375 L 1072.835938 396.609375 Z M 1072.835938 342.839844 " clip-rule="nonzero"/></clipPath><clipPath id="27fc04b62a"><path d="M 1070.890625 106 L 1283 106 L 1283 297 L 1070.890625 297 Z M 1070.890625 106 " clip-rule="nonzero"/></clipPath><clipPath id="64aee305e0"><path d="M 1117 303 L 1236 303 L 1236 332.492188 L 1117 332.492188 Z M 1117 303 " clip-rule="nonzero"/></clipPath><clipPath id="dc1371a41e"><rect x="0" width="1440" y="0" height="638"/></clipPath></defs><g transform="matrix(1, 0, 0, 1, 0, 65)"><g clip-path="url(#dc1371a41e)"><g clip-path="url(#88ec79ac7a)"><g clip-path="url(#f835884327)"><g transform="matrix(1, 0, 0, 1, 0, 16)"><g clip-path="url(#d2ab023e35)"><g clip-path="url(#e8e69d113f)"><g clip-path="url(#ee3dce6c87)"><path fill="#1c1c1c" d="M 0 0.671875 L 1440.976562 0.671875 L 1440.976562 607.398438 L 0 607.398438 Z M 0 0.671875 " fill-opacity="1" fill-rule="nonzero"/></g></g></g></g></g></g><g clip-path="url(#bfab39ed7c)"><g clip-path="url(#68e568c868)"><path stroke-linecap="butt" transform="matrix(0.896135, 0, 0, 0.896135, 0.00000622222, 16.673661)" fill="none" stroke-linejoin="miter" d="M 33.477081 -0.00199284 L 1573.414425 -0.00199284 C 1582.2937 -0.00199284 1590.806819 3.528794 1597.083773 9.805748 C 1603.365086 16.082702 1606.891514 24.60018 1606.891514 33.475095 L 1606.891514 643.568876 C 1606.891514 652.44815 1603.365086 660.961269 1597.083773 667.238223 C 1590.806819 673.515178 1582.2937 677.045964 1573.414425 677.045964 L 33.477081 677.045964 C 24.597807 677.045964 16.084688 673.515178 9.803375 667.238223 C 3.526421 660.961269 -0.0000069434 652.44815 -0.0000069434 643.568876 L -0.0000069434 33.475095 C -0.0000069434 24.60018 3.526421 16.082702 9.803375 9.805748 C 16.084688 3.528794 24.597807 -0.00199284 33.477081 -0.00199284 Z M 33.477081 -0.00199284 " stroke="#fffffe" stroke-width="6.695417" stroke-opacity="1" stroke-miterlimit="4"/></g></g><g clip-path="url(#41d51f2daa)"><g transform="matrix(1, 0, 0, 1, 109, 266)"><g clip-path="url(#666e6e0aef)"><g clip-path="url(#70225789b3)"><path fill="#fc8f2b" d="M 0.75 0.160156 L 210.671875 0.160156 L 210.671875 54.0625 L 0.75 54.0625 Z M 0.75 0.160156 " fill-opacity="1" fill-rule="nonzero"/></g></g></g></g><g clip-path="url(#df3afa8c08)"><path stroke-linecap="butt" transform="matrix(0.896135, 0, 0, 0.896135, 110.040879, 266.158431)" fill="none" stroke-linejoin="miter" d="M -0.00202713 0.00192572 L 234.15886 0.00192572 L 234.15886 60.13863 L -0.00202713 60.13863 Z M -0.00202713 0.00192572 " stroke="#fffffe" stroke-width="6.695417" stroke-opacity="1" stroke-miterlimit="4"/></g><g clip-path="url(#51d7bd650d)"><g transform="matrix(1, 0, 0, 1, 109, 216)"><g clip-path="url(#b2fc1690fd)"><g clip-path="url(#83abccafcd)"><path fill="#fc8f2b" d="M 0.75 0.539062 L 210.671875 0.539062 L 210.671875 54.441406 L 0.75 54.441406 Z M 0.75 0.539062 " fill-opacity="1" fill-rule="nonzero"/></g></g></g></g><g clip-path="url(#df98ead49a)"><path stroke-linecap="butt" transform="matrix(0.896135, 0, 0, 0.896135, 110.040879, 216.538786)" fill="none" stroke-linejoin="miter" d="M -0.00202713 0.00030873 L 234.15886 0.00030873 L 234.15886 60.141372 L -0.00202713 60.141372 Z M -0.00202713 0.00030873 " stroke="#fffffe" stroke-width="6.695417" stroke-opacity="1" stroke-miterlimit="4"/></g><g clip-path="url(#9c7ef410b5)"><g transform="matrix(1, 0, 0, 1, 109, 465)"><g clip-path="url(#95da596088)"><g clip-path="url(#0978d04756)"><path fill="#fcc92b" d="M 0.75 0.839844 L 210.671875 0.839844 L 210.671875 54.742188 L 0.75 54.742188 Z M 0.75 0.839844 " fill-opacity="1" fill-rule="nonzero"/></g></g></g></g><g clip-path="url(#4cca691c19)"><path stroke-linecap="butt" transform="matrix(0.896135, 0, 0, 0.896135, 110.040879, 465.838041)" fill="none" stroke-linejoin="miter" d="M -0.00202713 0.00201137 L 234.15886 0.00201137 L 234.15886 60.138715 L -0.00202713 60.138715 Z M -0.00202713 0.00201137 " stroke="#fffffe" stroke-width="6.695417" stroke-opacity="1" stroke-miterlimit="4"/></g><g clip-path="url(#b3d5d139b3)"><g transform="matrix(1, 0, 0, 1, 109, 416)"><g clip-path="url(#3870cf3ccf)"><g clip-path="url(#10463582b6)"><path fill="#fcc92b" d="M 0.75 0.21875 L 210.671875 0.21875 L 210.671875 54.121094 L 0.75 54.121094 Z M 0.75 0.21875 " fill-opacity="1" fill-rule="nonzero"/></g></g></g></g><g clip-path="url(#6230e00ccc)"><path stroke-linecap="butt" transform="matrix(0.896135, 0, 0, 0.896135, 110.040879, 416.218404)" fill="none" stroke-linejoin="miter" d="M -0.00202713 0.000386336 L 234.15886 0.000386336 L 234.15886 60.141449 L -0.00202713 60.141449 Z M -0.00202713 0.000386336 " stroke="#fffffe" stroke-width="6.695417" stroke-opacity="1" stroke-miterlimit="4"/></g><g clip-path="url(#81c6574e12)"><g transform="matrix(1, 0, 0, 1, 634, 327)"><g clip-path="url(#cbee14df21)"><g clip-path="url(#2e9a2ac46a)"><path fill="#fcc92b" d="M 0.0351562 0.941406 L 209.960938 0.941406 L 209.960938 54.84375 L 0.0351562 54.84375 Z M 0.0351562 0.941406 " fill-opacity="1" fill-rule="nonzero"/></g></g></g></g><g clip-path="url(#d2739daaa9)"><path stroke-linecap="butt" transform="matrix(0.896135, 0, 0, 0.896135, 634.327894, 327.941464)" fill="none" stroke-linejoin="miter" d="M 0.000257428 -0.0000647019 L 234.161144 -0.0000647019 L 234.161144 60.140998 L 0.000257428 60.140998 Z M 0.000257428 -0.0000647019 " stroke="#fffffe" stroke-width="6.695417" stroke-opacity="1" stroke-miterlimit="4"/></g><g clip-path="url(#41c9b68628)"><g transform="matrix(1, 0, 0, 1, 634, 278)"><g clip-path="url(#605782ccf4)"><g clip-path="url(#53f94a7441)"><path fill="#fc8f2b" d="M 0.0351562 0.320312 L 209.960938 0.320312 L 209.960938 54.222656 L 0.0351562 54.222656 Z M 0.0351562 0.320312 " fill-opacity="1" fill-rule="nonzero"/></g></g></g></g><g clip-path="url(#13fb5077ab)"><path stroke-linecap="butt" transform="matrix(0.896135, 0, 0, 0.896135, 634.327894, 278.32176)" fill="none" stroke-linejoin="miter" d="M 0.000257428 -0.00161474 L 234.161144 -0.00161474 L 234.161144 60.139448 L 0.000257428 60.139448 Z M 0.000257428 -0.00161474 " stroke="#fffffe" stroke-width="6.695417" stroke-opacity="1" stroke-miterlimit="4"/></g><path stroke-linecap="butt" transform="matrix(0.875932, 0.189214, -0.189214, 0.875932, 320.55418, 262.614946)" fill="none" stroke-linejoin="miter" d="M 0.000119789 2.000405 L 358.631889 2.001913 " stroke="#ffffff" stroke-width="4" stroke-opacity="1" stroke-miterlimit="4"/><path stroke-linecap="butt" transform="matrix(0.818696, -0.364412, 0.364412, 0.818696, 319.870128, 465.942153)" fill="none" stroke-linejoin="miter" d="M -0.000675821 1.997965 L 383.187174 1.999673 " stroke="#ffffff" stroke-width="4" stroke-opacity="1" stroke-miterlimit="4"/><g clip-path="url(#0be3964aba)"><g transform="matrix(1, 0, 0, 1, 1072, 342)"><g clip-path="url(#d7dfc36774)"><g clip-path="url(#147a19c631)"><path fill="#fc8f2b" d="M 0.542969 0.839844 L 210.46875 0.839844 L 210.46875 54.742188 L 0.542969 54.742188 Z M 0.542969 0.839844 " fill-opacity="1" fill-rule="nonzero"/></g></g></g></g><g clip-path="url(#a1f640768f)"><path stroke-linecap="butt" transform="matrix(0.896135, 0, 0, 0.896135, 1072.834992, 342.840596)" fill="none" stroke-linejoin="miter" d="M 0.00105481 -0.000839753 L 234.157583 -0.000839753 L 234.157583 60.140223 L 0.00105481 60.140223 Z M 0.00105481 -0.000839753 " stroke="#fffffe" stroke-width="6.695417" stroke-opacity="1" stroke-miterlimit="4"/></g><g clip-path="url(#27fc04b62a)"><path fill="#f2f2f2" d="M 1276.65625 124.078125 L 1248.226562 124.078125 L 1248.226562 112.851562 C 1248.230469 108.113281 1246.367188 106.253906 1241.628906 106.253906 L 1111.347656 106.253906 C 1106.609375 106.253906 1104.746094 108.113281 1104.746094 112.851562 L 1104.746094 124.078125 L 1077.199219 124.078125 C 1072.648438 124.078125 1070.863281 125.863281 1070.863281 130.414062 L 1070.863281 130.941406 C 1072.320312 167.714844 1096.613281 198.863281 1133.414062 212.035156 C 1141.347656 223.761719 1151.054688 234.074219 1162.84375 242.542969 C 1161.375 264.703125 1153.554688 280.140625 1141.191406 294.546875 C 1140.242188 295.648438 1140.195312 296.53125 1142.09375 296.53125 L 1210.886719 296.53125 C 1212.78125 296.53125 1212.738281 295.652344 1211.785156 294.546875 C 1199.421875 280.140625 1191.601562 264.707031 1190.132812 242.542969 C 1201.789062 234.171875 1211.40625 223.992188 1219.292969 212.429688 C 1256.730469 199.5 1281.519531 168.09375 1282.992188 130.941406 L 1282.992188 130.414062 C 1282.996094 125.863281 1281.207031 124.078125 1276.65625 124.078125 Z M 1084.835938 138.585938 C 1084.726562 137.863281 1084.929688 137.28125 1085.972656 137.28125 L 1106.1875 137.28125 C 1109.292969 156.960938 1114.453125 175.589844 1122.261719 192.292969 C 1101.914062 180.242188 1088.253906 160.941406 1084.835938 138.585938 Z M 1269.015625 138.585938 C 1265.53125 161.378906 1251.398438 180.988281 1230.394531 192.988281 C 1238.386719 176.113281 1243.640625 157.234375 1246.785156 137.28125 L 1267.882812 137.28125 C 1268.925781 137.28125 1269.128906 137.867188 1269.015625 138.585938 Z M 1269.015625 138.585938 " fill-opacity="1" fill-rule="nonzero"/></g><g clip-path="url(#64aee305e0)"><path fill="#f2f2f2" d="M 1229.304688 303.132812 L 1123.671875 303.132812 C 1119.296875 303.132812 1117.070312 305.363281 1117.070312 309.730469 L 1117.070312 325.796875 C 1117.070312 330.171875 1119.296875 332.398438 1123.671875 332.398438 L 1229.304688 332.398438 C 1233.679688 332.398438 1235.902344 330.171875 1235.902344 325.796875 L 1235.902344 309.730469 C 1235.902344 305.359375 1233.679688 303.132812 1229.304688 303.132812 Z M 1229.304688 303.132812 " fill-opacity="1" fill-rule="nonzero"/></g><g fill="#ffffff" fill-opacity="1"><g transform="translate(46.839631, 85.165273)"><g><path d="M 16.578125 -22.359375 L 16.578125 -18.34375 L 6.765625 -18.34375 L 6.765625 -4.078125 L 18.8125 -4.078125 L 18.8125 0 L 2.296875 0 L 2.296875 -40.140625 L 18.8125 -40.140625 L 18.8125 -36.0625 L 6.765625 -36.0625 L 6.765625 -22.359375 Z M 16.578125 -22.359375 "/></g></g></g><g fill="#ffffff" fill-opacity="1"><g transform="translate(67.48155, 85.165273)"><g><path d="M 2.296875 0 L 2.296875 -40.140625 L 6.765625 -40.140625 L 6.765625 -4.078125 L 18.234375 -4.078125 L 18.234375 0 Z M 2.296875 0 "/></g></g></g><g fill="#ffffff" fill-opacity="1"><g transform="translate(86.804685, 85.165273)"><g><path d="M 6.765625 -40.140625 L 6.765625 0 L 2.296875 0 L 2.296875 -40.140625 Z M 6.765625 -40.140625 "/></g></g></g><g fill="#ffffff" fill-opacity="1"><g transform="translate(95.86419, 85.165273)"><g><path d="M 17.09375 -0.0625 L 12.78125 -0.0625 L 6.140625 -32 L 6.140625 0 L 2.234375 0 L 2.234375 -40.140625 L 8.484375 -40.140625 L 15.078125 -8.078125 L 21.453125 -40.140625 L 27.703125 -40.140625 L 27.703125 0 L 23.453125 0 L 23.453125 -32.28125 Z M 17.09375 -0.0625 "/></g></g></g><g fill="#ffffff" fill-opacity="1"><g transform="translate(125.852315, 85.165273)"><g><path d="M 6.765625 -40.140625 L 6.765625 0 L 2.296875 0 L 2.296875 -40.140625 Z M 6.765625 -40.140625 "/></g></g></g><g fill="#ffffff" fill-opacity="1"><g transform="translate(134.911819, 85.165273)"><g><path d="M 6.25 0 L 2.234375 0 L 2.234375 -40.140625 L 7.90625 -40.140625 L 17.203125 -11.125 L 17.203125 -40.140625 L 21.15625 -40.140625 L 21.15625 0 L 16.515625 0 L 6.25 -32.453125 Z M 6.25 0 "/></g></g></g><g fill="#ffffff" fill-opacity="1"><g transform="translate(158.363336, 85.165273)"><g><path d="M 6.828125 -8.078125 L 5.28125 0 L 1.140625 0 L 8.828125 -40.140625 L 15.3125 -40.140625 L 23 0 L 18.515625 0 L 16.96875 -8.078125 Z M 7.390625 -11.921875 L 16.34375 -11.921875 L 11.8125 -35.09375 Z M 7.390625 -11.921875 "/></g></g></g><g fill="#ffffff" fill-opacity="1"><g transform="translate(182.502912, 85.165273)"><g><path d="M 10.953125 -40.546875 C 14.046875 -40.546875 16.328125 -39.625 17.796875 -37.78125 C 19.273438 -35.945312 20.015625 -33.503906 20.015625 -30.453125 L 20.015625 -26.84375 L 15.765625 -26.84375 L 15.765625 -30.671875 C 15.765625 -32.515625 15.390625 -33.941406 14.640625 -34.953125 C 13.898438 -35.960938 12.707031 -36.46875 11.0625 -36.46875 C 9.457031 -36.46875 8.269531 -35.960938 7.5 -34.953125 C 6.738281 -33.941406 6.359375 -32.515625 6.359375 -30.671875 L 6.359375 -9.46875 C 6.359375 -7.625 6.738281 -6.195312 7.5 -5.1875 C 8.269531 -4.175781 9.457031 -3.671875 11.0625 -3.671875 C 12.707031 -3.671875 13.898438 -4.175781 14.640625 -5.1875 C 15.390625 -6.195312 15.765625 -7.625 15.765625 -9.46875 L 15.765625 -14.6875 L 20.015625 -14.6875 L 20.015625 -9.6875 C 20.015625 -6.820312 19.351562 -4.476562 18.03125 -2.65625 C 16.71875 -0.84375 14.679688 0.15625 11.921875 0.34375 L 11.921875 2.125 C 13.265625 2.125 14.304688 2.378906 15.046875 2.890625 C 15.796875 3.410156 16.171875 4.128906 16.171875 5.046875 C 16.171875 6.191406 15.691406 7.085938 14.734375 7.734375 C 13.773438 8.390625 12.4375 8.71875 10.71875 8.71875 C 9.039062 8.71875 7.742188 8.398438 6.828125 7.765625 C 5.910156 7.140625 5.453125 6.269531 5.453125 5.15625 L 5.453125 4.703125 L 8.375 4.703125 L 8.375 5.109375 C 8.375 6.097656 9.15625 6.648438 10.71875 6.765625 C 12.363281 6.765625 13.1875 6.15625 13.1875 4.9375 C 13.1875 3.789062 12.25 3.21875 10.375 3.21875 L 9.859375 3.21875 L 9.859375 0.34375 C 7.148438 0.15625 5.15625 -0.851562 3.875 -2.6875 C 2.59375 -4.53125 1.953125 -6.863281 1.953125 -9.6875 L 1.953125 -30.453125 C 1.953125 -31.984375 2.132812 -33.367188 2.5 -34.609375 C 2.863281 -35.847656 3.414062 -36.90625 4.15625 -37.78125 C 4.90625 -38.664062 5.84375 -39.347656 6.96875 -39.828125 C 8.09375 -40.304688 9.421875 -40.546875 10.953125 -40.546875 Z M 10.953125 -40.546875 "/></g></g></g><g fill="#ffffff" fill-opacity="1"><g transform="translate(204.29161, 85.165273)"><g><path d="M 9.234375 -47.359375 C 9.804688 -47.359375 10.332031 -47.269531 10.8125 -47.09375 C 11.289062 -46.925781 11.726562 -46.726562 12.125 -46.5 C 12.53125 -46.269531 12.921875 -46.066406 13.296875 -45.890625 C 13.679688 -45.722656 14.085938 -45.640625 14.515625 -45.640625 C 15.003906 -45.679688 15.429688 -45.828125 15.796875 -46.078125 C 16.160156 -46.328125 16.492188 -46.753906 16.796875 -47.359375 L 19.03125 -45.8125 C 18.570312 -44.707031 18 -43.882812 17.3125 -43.34375 C 16.625 -42.8125 15.84375 -42.546875 14.96875 -42.546875 C 14.394531 -42.546875 13.878906 -42.628906 13.421875 -42.796875 C 12.960938 -42.972656 12.53125 -43.164062 12.125 -43.375 C 11.726562 -43.59375 11.335938 -43.785156 10.953125 -43.953125 C 10.566406 -44.128906 10.144531 -44.21875 9.6875 -44.21875 C 9.15625 -44.21875 8.695312 -44.09375 8.3125 -43.84375 C 7.925781 -43.59375 7.582031 -43.140625 7.28125 -42.484375 L 5.046875 -44.046875 C 5.503906 -45.222656 6.09375 -46.0625 6.8125 -46.5625 C 7.539062 -47.0625 8.347656 -47.328125 9.234375 -47.359375 Z M 6.828125 -8.078125 L 5.28125 0 L 1.140625 0 L 8.828125 -40.140625 L 15.3125 -40.140625 L 23 0 L 18.515625 0 L 16.96875 -8.078125 Z M 7.390625 -11.921875 L 16.34375 -11.921875 L 11.8125 -35.09375 Z M 7.390625 -11.921875 "/></g></g></g><g fill="#ffffff" fill-opacity="1"><g transform="translate(228.431186, 85.165273)"><g><path d="M 1.953125 -30.453125 C 1.953125 -33.546875 2.707031 -36 4.21875 -37.8125 C 5.726562 -39.632812 8.03125 -40.546875 11.125 -40.546875 C 14.21875 -40.546875 16.53125 -39.632812 18.0625 -37.8125 C 19.59375 -36 20.359375 -33.546875 20.359375 -30.453125 L 20.359375 -9.6875 C 20.359375 -6.632812 19.59375 -4.1875 18.0625 -2.34375 C 16.53125 -0.507812 14.21875 0.40625 11.125 0.40625 C 8.03125 0.40625 5.726562 -0.507812 4.21875 -2.34375 C 2.707031 -4.1875 1.953125 -6.632812 1.953125 -9.6875 Z M 6.359375 -9.46875 C 6.359375 -7.625 6.75 -6.195312 7.53125 -5.1875 C 8.320312 -4.175781 9.519531 -3.671875 11.125 -3.671875 C 12.769531 -3.671875 13.972656 -4.175781 14.734375 -5.1875 C 15.503906 -6.195312 15.890625 -7.625 15.890625 -9.46875 L 15.890625 -30.671875 C 15.890625 -32.515625 15.503906 -33.941406 14.734375 -34.953125 C 13.972656 -35.960938 12.769531 -36.46875 11.125 -36.46875 C 9.519531 -36.46875 8.320312 -35.960938 7.53125 -34.953125 C 6.75 -33.941406 6.359375 -32.515625 6.359375 -30.671875 Z M 6.359375 -9.46875 "/></g></g></g><g fill="#ffffff" fill-opacity="1"><g transform="translate(250.735924, 85.165273)"><g/></g></g><g fill="#ffffff" fill-opacity="1"><g transform="translate(259.623424, 85.165273)"><g><path d="M 10.71875 -40.546875 C 13.78125 -40.546875 16.035156 -39.632812 17.484375 -37.8125 C 18.941406 -36 19.671875 -33.5625 19.671875 -30.5 L 19.671875 -29.421875 L 15.421875 -29.421875 L 15.421875 -30.734375 C 15.421875 -32.566406 15.054688 -33.976562 14.328125 -34.96875 C 13.609375 -35.96875 12.445312 -36.46875 10.84375 -36.46875 C 9.226562 -36.46875 8.054688 -35.96875 7.328125 -34.96875 C 6.609375 -33.976562 6.25 -32.585938 6.25 -30.796875 C 6.25 -29.304688 6.582031 -28.003906 7.25 -26.890625 C 7.914062 -25.785156 8.742188 -24.765625 9.734375 -23.828125 C 10.734375 -22.890625 11.816406 -21.96875 12.984375 -21.0625 C 14.148438 -20.164062 15.226562 -19.179688 16.21875 -18.109375 C 17.21875 -17.046875 18.050781 -15.832031 18.71875 -14.46875 C 19.382812 -13.113281 19.71875 -11.503906 19.71875 -9.640625 C 19.71875 -6.578125 18.984375 -4.132812 17.515625 -2.3125 C 16.046875 -0.5 13.765625 0.40625 10.671875 0.40625 C 7.566406 0.40625 5.285156 -0.5 3.828125 -2.3125 C 2.378906 -4.132812 1.65625 -6.578125 1.65625 -9.640625 L 1.65625 -11.921875 L 5.84375 -11.921875 L 5.84375 -9.40625 C 5.84375 -7.570312 6.222656 -6.15625 6.984375 -5.15625 C 7.753906 -4.164062 8.941406 -3.671875 10.546875 -3.671875 C 12.148438 -3.671875 13.332031 -4.164062 14.09375 -5.15625 C 14.863281 -6.15625 15.25 -7.570312 15.25 -9.40625 C 15.25 -10.894531 14.914062 -12.179688 14.25 -13.265625 C 13.582031 -14.359375 12.75 -15.375 11.75 -16.3125 C 10.757812 -17.25 9.691406 -18.164062 8.546875 -19.0625 C 7.398438 -19.96875 6.328125 -20.953125 5.328125 -22.015625 C 4.335938 -23.085938 3.503906 -24.300781 2.828125 -25.65625 C 2.160156 -27.019531 1.828125 -28.632812 1.828125 -30.5 C 1.828125 -33.601562 2.550781 -36.050781 4 -37.84375 C 5.457031 -39.644531 7.695312 -40.546875 10.71875 -40.546875 Z M 10.71875 -40.546875 "/></g></g></g><g fill="#ffffff" fill-opacity="1"><g transform="translate(280.953416, 85.165273)"><g><path d="M 6.765625 -40.140625 L 6.765625 0 L 2.296875 0 L 2.296875 -40.140625 Z M 6.765625 -40.140625 "/></g></g></g><g fill="#ffffff" fill-opacity="1"><g transform="translate(290.01292, 85.165273)"><g><path d="M 17.09375 -0.0625 L 12.78125 -0.0625 L 6.140625 -32 L 6.140625 0 L 2.234375 0 L 2.234375 -40.140625 L 8.484375 -40.140625 L 15.078125 -8.078125 L 21.453125 -40.140625 L 27.703125 -40.140625 L 27.703125 0 L 23.453125 0 L 23.453125 -32.28125 Z M 17.09375 -0.0625 "/></g></g></g><g fill="#ffffff" fill-opacity="1"><g transform="translate(320.001045, 85.165273)"><g><path d="M 11.0625 -40.140625 C 14.238281 -40.140625 16.53125 -39.269531 17.9375 -37.53125 C 19.351562 -35.789062 20.0625 -33.390625 20.0625 -30.328125 L 20.0625 -25.515625 C 20.0625 -22.304688 19.304688 -19.890625 17.796875 -18.265625 C 16.296875 -16.640625 13.9375 -15.828125 10.71875 -15.828125 L 6.765625 -15.828125 L 6.765625 0 L 2.296875 0 L 2.296875 -40.140625 Z M 10.71875 -19.84375 C 12.40625 -19.84375 13.648438 -20.253906 14.453125 -21.078125 C 15.253906 -21.898438 15.65625 -23.285156 15.65625 -25.234375 L 15.65625 -30.5625 C 15.65625 -32.394531 15.300781 -33.769531 14.59375 -34.6875 C 13.882812 -35.601562 12.707031 -36.0625 11.0625 -36.0625 L 6.765625 -36.0625 L 6.765625 -19.84375 Z M 10.71875 -19.84375 "/></g></g></g><g fill="#ffffff" fill-opacity="1"><g transform="translate(341.273675, 85.165273)"><g><path d="M 2.296875 0 L 2.296875 -40.140625 L 6.765625 -40.140625 L 6.765625 -4.078125 L 18.234375 -4.078125 L 18.234375 0 Z M 2.296875 0 "/></g></g></g><g fill="#ffffff" fill-opacity="1"><g transform="translate(360.59681, 85.165273)"><g><path d="M 16.578125 -22.359375 L 16.578125 -18.34375 L 6.765625 -18.34375 L 6.765625 -4.078125 L 18.8125 -4.078125 L 18.8125 0 L 2.296875 0 L 2.296875 -40.140625 L 18.8125 -40.140625 L 18.8125 -36.0625 L 6.765625 -36.0625 L 6.765625 -22.359375 Z M 16.578125 -22.359375 "/></g></g></g><g fill="#ffffff" fill-opacity="1"><g transform="translate(381.238743, 85.165273)"><g><path d="M 10.71875 -40.546875 C 13.78125 -40.546875 16.035156 -39.632812 17.484375 -37.8125 C 18.941406 -36 19.671875 -33.5625 19.671875 -30.5 L 19.671875 -29.421875 L 15.421875 -29.421875 L 15.421875 -30.734375 C 15.421875 -32.566406 15.054688 -33.976562 14.328125 -34.96875 C 13.609375 -35.96875 12.445312 -36.46875 10.84375 -36.46875 C 9.226562 -36.46875 8.054688 -35.96875 7.328125 -34.96875 C 6.609375 -33.976562 6.25 -32.585938 6.25 -30.796875 C 6.25 -29.304688 6.582031 -28.003906 7.25 -26.890625 C 7.914062 -25.785156 8.742188 -24.765625 9.734375 -23.828125 C 10.734375 -22.890625 11.816406 -21.96875 12.984375 -21.0625 C 14.148438 -20.164062 15.226562 -19.179688 16.21875 -18.109375 C 17.21875 -17.046875 18.050781 -15.832031 18.71875 -14.46875 C 19.382812 -13.113281 19.71875 -11.503906 19.71875 -9.640625 C 19.71875 -6.578125 18.984375 -4.132812 17.515625 -2.3125 C 16.046875 -0.5 13.765625 0.40625 10.671875 0.40625 C 7.566406 0.40625 5.285156 -0.5 3.828125 -2.3125 C 2.378906 -4.132812 1.65625 -6.578125 1.65625 -9.640625 L 1.65625 -11.921875 L 5.84375 -11.921875 L 5.84375 -9.40625 C 5.84375 -7.570312 6.222656 -6.15625 6.984375 -5.15625 C 7.753906 -4.164062 8.941406 -3.671875 10.546875 -3.671875 C 12.148438 -3.671875 13.332031 -4.164062 14.09375 -5.15625 C 14.863281 -6.15625 15.25 -7.570312 15.25 -9.40625 C 15.25 -10.894531 14.914062 -12.179688 14.25 -13.265625 C 13.582031 -14.359375 12.75 -15.375 11.75 -16.3125 C 10.757812 -17.25 9.691406 -18.164062 8.546875 -19.0625 C 7.398438 -19.96875 6.328125 -20.953125 5.328125 -22.015625 C 4.335938 -23.085938 3.503906 -24.300781 2.828125 -25.65625 C 2.160156 -27.019531 1.828125 -28.632812 1.828125 -30.5 C 1.828125 -33.601562 2.550781 -36.050781 4 -37.84375 C 5.457031 -39.644531 7.695312 -40.546875 10.71875 -40.546875 Z M 10.71875 -40.546875 "/></g></g></g><g fill="#ffffff" fill-opacity="1"><g transform="translate(514.085891, 569.458321)"><g><path d="M 1.296875 -20.296875 C 1.296875 -22.367188 1.800781 -24.007812 2.8125 -25.21875 C 3.820312 -26.425781 5.359375 -27.03125 7.421875 -27.03125 C 9.484375 -27.03125 11.023438 -26.425781 12.046875 -25.21875 C 13.066406 -24.007812 13.578125 -22.367188 13.578125 -20.296875 L 13.578125 -6.46875 C 13.578125 -4.425781 13.066406 -2.789062 12.046875 -1.5625 C 11.023438 -0.34375 9.484375 0.265625 7.421875 0.265625 C 5.359375 0.265625 3.820312 -0.34375 2.8125 -1.5625 C 1.800781 -2.789062 1.296875 -4.425781 1.296875 -6.46875 Z M 4.25 -6.3125 C 4.25 -5.082031 4.507812 -4.128906 5.03125 -3.453125 C 5.550781 -2.785156 6.347656 -2.453125 7.421875 -2.453125 C 8.515625 -2.453125 9.316406 -2.785156 9.828125 -3.453125 C 10.335938 -4.128906 10.59375 -5.082031 10.59375 -6.3125 L 10.59375 -20.453125 C 10.59375 -21.679688 10.335938 -22.628906 9.828125 -23.296875 C 9.316406 -23.972656 8.515625 -24.3125 7.421875 -24.3125 C 6.347656 -24.3125 5.550781 -23.972656 5.03125 -23.296875 C 4.507812 -22.628906 4.25 -21.679688 4.25 -20.453125 Z M 4.25 -6.3125 "/></g></g></g><g fill="#ffffff" fill-opacity="1"><g transform="translate(528.955698, 569.458321)"><g/></g></g><g fill="#ffffff" fill-opacity="1"><g transform="translate(534.880684, 569.458321)"><g><path d="M 7.375 -26.765625 C 9.488281 -26.765625 11.015625 -26.179688 11.953125 -25.015625 C 12.898438 -23.859375 13.375 -22.257812 13.375 -20.21875 L 13.375 -17.015625 C 13.375 -14.867188 12.867188 -13.253906 11.859375 -12.171875 C 10.859375 -11.085938 9.289062 -10.546875 7.15625 -10.546875 L 4.515625 -10.546875 L 4.515625 0 L 1.53125 0 L 1.53125 -26.765625 Z M 7.15625 -13.234375 C 8.269531 -13.234375 9.09375 -13.503906 9.625 -14.046875 C 10.164062 -14.597656 10.4375 -15.523438 10.4375 -16.828125 L 10.4375 -20.375 C 10.4375 -21.601562 10.195312 -22.519531 9.71875 -23.125 C 9.25 -23.738281 8.46875 -24.046875 7.375 -24.046875 L 4.515625 -24.046875 L 4.515625 -13.234375 Z M 7.15625 -13.234375 "/></g></g></g><g fill="#ffffff" fill-opacity="1"><g transform="translate(549.062419, 569.458321)"><g><path d="M 11.046875 -14.90625 L 11.046875 -12.234375 L 4.515625 -12.234375 L 4.515625 -2.71875 L 12.546875 -2.71875 L 12.546875 0 L 1.53125 0 L 1.53125 -26.765625 L 12.546875 -26.765625 L 12.546875 -24.046875 L 4.515625 -24.046875 L 4.515625 -14.90625 Z M 11.046875 -14.90625 "/></g></g></g><g fill="#ffffff" fill-opacity="1"><g transform="translate(562.82368, 569.458321)"><g><path d="M 7.5 -26.765625 C 9.613281 -26.765625 11.132812 -26.238281 12.0625 -25.1875 C 12.988281 -24.144531 13.453125 -22.628906 13.453125 -20.640625 L 13.453125 -18.46875 C 13.453125 -16.988281 13.1875 -15.789062 12.65625 -14.875 C 12.125 -13.957031 11.28125 -13.320312 10.125 -12.96875 C 11.351562 -12.601562 12.222656 -11.941406 12.734375 -10.984375 C 13.242188 -10.035156 13.5 -8.832031 13.5 -7.375 L 13.5 -3.21875 C 13.5 -2.625 13.523438 -2.050781 13.578125 -1.5 C 13.628906 -0.957031 13.78125 -0.457031 14.03125 0 L 11.015625 0 C 10.835938 -0.382812 10.707031 -0.796875 10.625 -1.234375 C 10.550781 -1.679688 10.515625 -2.351562 10.515625 -3.25 L 10.515625 -7.453125 C 10.515625 -8.960938 10.175781 -10.003906 9.5 -10.578125 C 8.820312 -11.148438 7.859375 -11.4375 6.609375 -11.4375 L 4.515625 -11.4375 L 4.515625 0 L 1.53125 0 L 1.53125 -26.765625 Z M 6.734375 -14.140625 C 7.929688 -14.140625 8.859375 -14.390625 9.515625 -14.890625 C 10.179688 -15.390625 10.515625 -16.363281 10.515625 -17.8125 L 10.515625 -20.375 C 10.515625 -21.601562 10.273438 -22.519531 9.796875 -23.125 C 9.328125 -23.738281 8.535156 -24.046875 7.421875 -24.046875 L 4.515625 -24.046875 L 4.515625 -14.140625 Z M 6.734375 -14.140625 "/></g></g></g><g fill="#ffffff" fill-opacity="1"><g transform="translate(577.884608, 569.458321)"><g><path d="M 7.796875 -26.765625 C 9.890625 -26.765625 11.425781 -26.171875 12.40625 -24.984375 C 13.382812 -23.796875 13.875 -22.171875 13.875 -20.109375 L 13.875 -6.609375 C 13.875 -4.546875 13.382812 -2.925781 12.40625 -1.75 C 11.425781 -0.582031 9.890625 0 7.796875 0 L 1.53125 0 L 1.53125 -26.765625 Z M 7.765625 -2.71875 C 8.835938 -2.71875 9.632812 -3.039062 10.15625 -3.6875 C 10.675781 -4.34375 10.9375 -5.28125 10.9375 -6.5 L 10.9375 -20.265625 C 10.9375 -21.484375 10.675781 -22.414062 10.15625 -23.0625 C 9.632812 -23.71875 8.820312 -24.046875 7.71875 -24.046875 L 4.515625 -24.046875 L 4.515625 -2.71875 Z M 7.765625 -2.71875 "/></g></g></g><g fill="#ffffff" fill-opacity="1"><g transform="translate(593.021987, 569.458321)"><g><path d="M 11.046875 -14.90625 L 11.046875 -12.234375 L 4.515625 -12.234375 L 4.515625 -2.71875 L 12.546875 -2.71875 L 12.546875 0 L 1.53125 0 L 1.53125 -26.765625 L 12.546875 -26.765625 L 12.546875 -24.046875 L 4.515625 -24.046875 L 4.515625 -14.90625 Z M 11.046875 -14.90625 "/></g></g></g><g fill="#ffffff" fill-opacity="1"><g transform="translate(606.783248, 569.458321)"><g><path d="M 7.796875 -26.765625 C 9.890625 -26.765625 11.425781 -26.171875 12.40625 -24.984375 C 13.382812 -23.796875 13.875 -22.171875 13.875 -20.109375 L 13.875 -6.609375 C 13.875 -4.546875 13.382812 -2.925781 12.40625 -1.75 C 11.425781 -0.582031 9.890625 0 7.796875 0 L 1.53125 0 L 1.53125 -26.765625 Z M 7.765625 -2.71875 C 8.835938 -2.71875 9.632812 -3.039062 10.15625 -3.6875 C 10.675781 -4.34375 10.9375 -5.28125 10.9375 -6.5 L 10.9375 -20.265625 C 10.9375 -21.484375 10.675781 -22.414062 10.15625 -23.0625 C 9.632812 -23.71875 8.820312 -24.046875 7.71875 -24.046875 L 4.515625 -24.046875 L 4.515625 -2.71875 Z M 7.765625 -2.71875 "/></g></g></g><g fill="#ffffff" fill-opacity="1"><g transform="translate(621.920627, 569.458321)"><g><path d="M 1.296875 -20.296875 C 1.296875 -22.367188 1.800781 -24.007812 2.8125 -25.21875 C 3.820312 -26.425781 5.359375 -27.03125 7.421875 -27.03125 C 9.484375 -27.03125 11.023438 -26.425781 12.046875 -25.21875 C 13.066406 -24.007812 13.578125 -22.367188 13.578125 -20.296875 L 13.578125 -6.46875 C 13.578125 -4.425781 13.066406 -2.789062 12.046875 -1.5625 C 11.023438 -0.34375 9.484375 0.265625 7.421875 0.265625 C 5.359375 0.265625 3.820312 -0.34375 2.8125 -1.5625 C 1.800781 -2.789062 1.296875 -4.425781 1.296875 -6.46875 Z M 4.25 -6.3125 C 4.25 -5.082031 4.507812 -4.128906 5.03125 -3.453125 C 5.550781 -2.785156 6.347656 -2.453125 7.421875 -2.453125 C 8.515625 -2.453125 9.316406 -2.785156 9.828125 -3.453125 C 10.335938 -4.128906 10.59375 -5.082031 10.59375 -6.3125 L 10.59375 -20.453125 C 10.59375 -21.679688 10.335938 -22.628906 9.828125 -23.296875 C 9.316406 -23.972656 8.515625 -24.3125 7.421875 -24.3125 C 6.347656 -24.3125 5.550781 -23.972656 5.03125 -23.296875 C 4.507812 -22.628906 4.25 -21.679688 4.25 -20.453125 Z M 4.25 -6.3125 "/></g></g></g><g fill="#ffffff" fill-opacity="1"><g transform="translate(636.790435, 569.458321)"><g><path d="M 7.5 -26.765625 C 9.613281 -26.765625 11.132812 -26.238281 12.0625 -25.1875 C 12.988281 -24.144531 13.453125 -22.628906 13.453125 -20.640625 L 13.453125 -18.46875 C 13.453125 -16.988281 13.1875 -15.789062 12.65625 -14.875 C 12.125 -13.957031 11.28125 -13.320312 10.125 -12.96875 C 11.351562 -12.601562 12.222656 -11.941406 12.734375 -10.984375 C 13.242188 -10.035156 13.5 -8.832031 13.5 -7.375 L 13.5 -3.21875 C 13.5 -2.625 13.523438 -2.050781 13.578125 -1.5 C 13.628906 -0.957031 13.78125 -0.457031 14.03125 0 L 11.015625 0 C 10.835938 -0.382812 10.707031 -0.796875 10.625 -1.234375 C 10.550781 -1.679688 10.515625 -2.351562 10.515625 -3.25 L 10.515625 -7.453125 C 10.515625 -8.960938 10.175781 -10.003906 9.5 -10.578125 C 8.820312 -11.148438 7.859375 -11.4375 6.609375 -11.4375 L 4.515625 -11.4375 L 4.515625 0 L 1.53125 0 L 1.53125 -26.765625 Z M 6.734375 -14.140625 C 7.929688 -14.140625 8.859375 -14.390625 9.515625 -14.890625 C 10.179688 -15.390625 10.515625 -16.363281 10.515625 -17.8125 L 10.515625 -20.375 C 10.515625 -21.601562 10.273438 -22.519531 9.796875 -23.125 C 9.328125 -23.738281 8.535156 -24.046875 7.421875 -24.046875 L 4.515625 -24.046875 L 4.515625 -14.140625 Z M 6.734375 -14.140625 "/></g></g></g><g fill="#ffffff" fill-opacity="1"><g transform="translate(651.851363, 569.458321)"><g/></g></g><g fill="#ffffff" fill-opacity="1"><g transform="translate(657.776349, 569.458321)"><g><path d="M 7.796875 -26.765625 C 9.890625 -26.765625 11.425781 -26.171875 12.40625 -24.984375 C 13.382812 -23.796875 13.875 -22.171875 13.875 -20.109375 L 13.875 -6.609375 C 13.875 -4.546875 13.382812 -2.925781 12.40625 -1.75 C 11.425781 -0.582031 9.890625 0 7.796875 0 L 1.53125 0 L 1.53125 -26.765625 Z M 7.765625 -2.71875 C 8.835938 -2.71875 9.632812 -3.039062 10.15625 -3.6875 C 10.675781 -4.34375 10.9375 -5.28125 10.9375 -6.5 L 10.9375 -20.265625 C 10.9375 -21.484375 10.675781 -22.414062 10.15625 -23.0625 C 9.632812 -23.71875 8.820312 -24.046875 7.71875 -24.046875 L 4.515625 -24.046875 L 4.515625 -2.71875 Z M 7.765625 -2.71875 "/></g></g></g><g fill="#ffffff" fill-opacity="1"><g transform="translate(672.913728, 569.458321)"><g><path d="M 11.046875 -14.90625 L 11.046875 -12.234375 L 4.515625 -12.234375 L 4.515625 -2.71875 L 12.546875 -2.71875 L 12.546875 0 L 1.53125 0 L 1.53125 -26.765625 L 12.546875 -26.765625 L 12.546875 -24.046875 L 4.515625 -24.046875 L 4.515625 -14.90625 Z M 11.046875 -14.90625 "/></g></g></g><g fill="#ffffff" fill-opacity="1"><g transform="translate(686.674989, 569.458321)"><g/></g></g><g fill="#ffffff" fill-opacity="1"><g transform="translate(692.599976, 569.458321)"><g><path d="M 7.296875 -27.03125 C 9.367188 -27.03125 10.894531 -26.414062 11.875 -25.1875 C 12.851562 -23.96875 13.34375 -22.335938 13.34375 -20.296875 L 13.34375 -17.890625 L 10.515625 -17.890625 L 10.515625 -20.453125 C 10.515625 -21.679688 10.265625 -22.628906 9.765625 -23.296875 C 9.265625 -23.972656 8.46875 -24.3125 7.375 -24.3125 C 6.300781 -24.3125 5.507812 -23.972656 5 -23.296875 C 4.5 -22.628906 4.25 -21.679688 4.25 -20.453125 L 4.25 -6.3125 C 4.25 -5.082031 4.5 -4.128906 5 -3.453125 C 5.507812 -2.785156 6.300781 -2.453125 7.375 -2.453125 C 8.46875 -2.453125 9.265625 -2.785156 9.765625 -3.453125 C 10.265625 -4.128906 10.515625 -5.082031 10.515625 -6.3125 L 10.515625 -9.78125 L 13.34375 -9.78125 L 13.34375 -6.46875 C 13.34375 -4.425781 12.851562 -2.789062 11.875 -1.5625 C 10.894531 -0.34375 9.367188 0.265625 7.296875 0.265625 C 5.265625 0.265625 3.753906 -0.34375 2.765625 -1.5625 C 1.785156 -2.789062 1.296875 -4.425781 1.296875 -6.46875 L 1.296875 -20.296875 C 1.296875 -21.316406 1.414062 -22.238281 1.65625 -23.0625 C 1.90625 -23.894531 2.273438 -24.601562 2.765625 -25.1875 C 3.265625 -25.78125 3.890625 -26.234375 4.640625 -26.546875 C 5.390625 -26.867188 6.273438 -27.03125 7.296875 -27.03125 Z M 7.296875 -27.03125 "/></g></g></g><g fill="#ffffff" fill-opacity="1"><g transform="translate(707.125747, 569.458321)"><g><path d="M 4.546875 -5.390625 L 3.515625 0 L 0.765625 0 L 5.890625 -26.765625 L 10.203125 -26.765625 L 15.328125 0 L 12.34375 0 L 11.3125 -5.390625 Z M 4.9375 -7.953125 L 10.890625 -7.953125 L 7.875 -23.40625 Z M 4.9375 -7.953125 "/></g></g></g><g fill="#ffffff" fill-opacity="1"><g transform="translate(723.257003, 569.458321)"><g><path d="M 7.796875 -26.765625 C 9.890625 -26.765625 11.425781 -26.171875 12.40625 -24.984375 C 13.382812 -23.796875 13.875 -22.171875 13.875 -20.109375 L 13.875 -6.609375 C 13.875 -4.546875 13.382812 -2.925781 12.40625 -1.75 C 11.425781 -0.582031 9.890625 0 7.796875 0 L 1.53125 0 L 1.53125 -26.765625 Z M 7.765625 -2.71875 C 8.835938 -2.71875 9.632812 -3.039062 10.15625 -3.6875 C 10.675781 -4.34375 10.9375 -5.28125 10.9375 -6.5 L 10.9375 -20.265625 C 10.9375 -21.484375 10.675781 -22.414062 10.15625 -23.0625 C 9.632812 -23.71875 8.820312 -24.046875 7.71875 -24.046875 L 4.515625 -24.046875 L 4.515625 -2.71875 Z M 7.765625 -2.71875 "/></g></g></g><g fill="#ffffff" fill-opacity="1"><g transform="translate(738.356149, 569.458321)"><g><path d="M 4.546875 -5.390625 L 3.515625 0 L 0.765625 0 L 5.890625 -26.765625 L 10.203125 -26.765625 L 15.328125 0 L 12.34375 0 L 11.3125 -5.390625 Z M 4.9375 -7.953125 L 10.890625 -7.953125 L 7.875 -23.40625 Z M 4.9375 -7.953125 "/></g></g></g><g fill="#ffffff" fill-opacity="1"><g transform="translate(754.487418, 569.458321)"><g/></g></g><g fill="#ffffff" fill-opacity="1"><g transform="translate(760.412391, 569.458321)"><g><path d="M 7.375 -26.765625 C 9.488281 -26.765625 11.015625 -26.179688 11.953125 -25.015625 C 12.898438 -23.859375 13.375 -22.257812 13.375 -20.21875 L 13.375 -17.015625 C 13.375 -14.867188 12.867188 -13.253906 11.859375 -12.171875 C 10.859375 -11.085938 9.289062 -10.546875 7.15625 -10.546875 L 4.515625 -10.546875 L 4.515625 0 L 1.53125 0 L 1.53125 -26.765625 Z M 7.15625 -13.234375 C 8.269531 -13.234375 9.09375 -13.503906 9.625 -14.046875 C 10.164062 -14.597656 10.4375 -15.523438 10.4375 -16.828125 L 10.4375 -20.375 C 10.4375 -21.601562 10.195312 -22.519531 9.71875 -23.125 C 9.25 -23.738281 8.46875 -24.046875 7.375 -24.046875 L 4.515625 -24.046875 L 4.515625 -13.234375 Z M 7.15625 -13.234375 "/></g></g></g><g fill="#ffffff" fill-opacity="1"><g transform="translate(774.09716, 569.458321)"><g><path d="M 4.546875 -5.390625 L 3.515625 0 L 0.765625 0 L 5.890625 -26.765625 L 10.203125 -26.765625 L 15.328125 0 L 12.34375 0 L 11.3125 -5.390625 Z M 4.9375 -7.953125 L 10.890625 -7.953125 L 7.875 -23.40625 Z M 4.9375 -7.953125 "/></g></g></g><g fill="#ffffff" fill-opacity="1"><g transform="translate(790.228416, 569.458321)"><g><path d="M 7.5 -26.765625 C 9.613281 -26.765625 11.132812 -26.238281 12.0625 -25.1875 C 12.988281 -24.144531 13.453125 -22.628906 13.453125 -20.640625 L 13.453125 -18.46875 C 13.453125 -16.988281 13.1875 -15.789062 12.65625 -14.875 C 12.125 -13.957031 11.28125 -13.320312 10.125 -12.96875 C 11.351562 -12.601562 12.222656 -11.941406 12.734375 -10.984375 C 13.242188 -10.035156 13.5 -8.832031 13.5 -7.375 L 13.5 -3.21875 C 13.5 -2.625 13.523438 -2.050781 13.578125 -1.5 C 13.628906 -0.957031 13.78125 -0.457031 14.03125 0 L 11.015625 0 C 10.835938 -0.382812 10.707031 -0.796875 10.625 -1.234375 C 10.550781 -1.679688 10.515625 -2.351562 10.515625 -3.25 L 10.515625 -7.453125 C 10.515625 -8.960938 10.175781 -10.003906 9.5 -10.578125 C 8.820312 -11.148438 7.859375 -11.4375 6.609375 -11.4375 L 4.515625 -11.4375 L 4.515625 0 L 1.53125 0 L 1.53125 -26.765625 Z M 6.734375 -14.140625 C 7.929688 -14.140625 8.859375 -14.390625 9.515625 -14.890625 C 10.179688 -15.390625 10.515625 -16.363281 10.515625 -17.8125 L 10.515625 -20.375 C 10.515625 -21.601562 10.273438 -22.519531 9.796875 -23.125 C 9.328125 -23.738281 8.535156 -24.046875 7.421875 -24.046875 L 4.515625 -24.046875 L 4.515625 -14.140625 Z M 6.734375 -14.140625 "/></g></g></g><g fill="#ffffff" fill-opacity="1"><g transform="translate(805.289331, 569.458321)"><g><path d="M 5.390625 0 L 5.390625 -24.046875 L 0.453125 -24.046875 L 0.453125 -26.765625 L 13.265625 -26.765625 L 13.265625 -24.046875 L 8.328125 -24.046875 L 8.328125 0 Z M 5.390625 0 "/></g></g></g><g fill="#ffffff" fill-opacity="1"><g transform="translate(819.050592, 569.458321)"><g><path d="M 4.515625 -26.765625 L 4.515625 0 L 1.53125 0 L 1.53125 -26.765625 Z M 4.515625 -26.765625 "/></g></g></g><g fill="#ffffff" fill-opacity="1"><g transform="translate(825.090234, 569.458321)"><g><path d="M 7.796875 -26.765625 C 9.890625 -26.765625 11.425781 -26.171875 12.40625 -24.984375 C 13.382812 -23.796875 13.875 -22.171875 13.875 -20.109375 L 13.875 -6.609375 C 13.875 -4.546875 13.382812 -2.925781 12.40625 -1.75 C 11.425781 -0.582031 9.890625 0 7.796875 0 L 1.53125 0 L 1.53125 -26.765625 Z M 7.765625 -2.71875 C 8.835938 -2.71875 9.632812 -3.039062 10.15625 -3.6875 C 10.675781 -4.34375 10.9375 -5.28125 10.9375 -6.5 L 10.9375 -20.265625 C 10.9375 -21.484375 10.675781 -22.414062 10.15625 -23.0625 C 9.632812 -23.71875 8.820312 -24.046875 7.71875 -24.046875 L 4.515625 -24.046875 L 4.515625 -2.71875 Z M 7.765625 -2.71875 "/></g></g></g><g fill="#ffffff" fill-opacity="1"><g transform="translate(840.18938, 569.458321)"><g><path d="M 4.546875 -5.390625 L 3.515625 0 L 0.765625 0 L 5.890625 -26.765625 L 10.203125 -26.765625 L 15.328125 0 L 12.34375 0 L 11.3125 -5.390625 Z M 4.9375 -7.953125 L 10.890625 -7.953125 L 7.875 -23.40625 Z M 4.9375 -7.953125 "/></g></g></g><g fill="#ffffff" fill-opacity="1"><g transform="translate(856.320636, 569.458321)"><g/></g></g><g fill="#ffffff" fill-opacity="1"><g transform="translate(862.245636, 569.458321)"><g><path d="M 7.15625 -27.03125 C 9.1875 -27.03125 10.6875 -26.425781 11.65625 -25.21875 C 12.625 -24.007812 13.109375 -22.382812 13.109375 -20.34375 L 13.109375 -19.609375 L 10.28125 -19.609375 L 10.28125 -20.5 C 10.28125 -21.71875 10.035156 -22.65625 9.546875 -23.3125 C 9.066406 -23.976562 8.289062 -24.3125 7.21875 -24.3125 C 6.15625 -24.3125 5.378906 -23.976562 4.890625 -23.3125 C 4.410156 -22.65625 4.171875 -21.726562 4.171875 -20.53125 C 4.171875 -19.539062 4.390625 -18.675781 4.828125 -17.9375 C 5.273438 -17.195312 5.832031 -16.515625 6.5 -15.890625 C 7.164062 -15.265625 7.882812 -14.648438 8.65625 -14.046875 C 9.4375 -13.453125 10.15625 -12.796875 10.8125 -12.078125 C 11.476562 -11.367188 12.035156 -10.5625 12.484375 -9.65625 C 12.929688 -8.75 13.15625 -7.671875 13.15625 -6.421875 C 13.15625 -4.378906 12.660156 -2.753906 11.671875 -1.546875 C 10.691406 -0.335938 9.171875 0.265625 7.109375 0.265625 C 5.046875 0.265625 3.53125 -0.335938 2.5625 -1.546875 C 1.59375 -2.753906 1.109375 -4.378906 1.109375 -6.421875 L 1.109375 -7.953125 L 3.90625 -7.953125 L 3.90625 -6.265625 C 3.90625 -5.046875 4.15625 -4.101562 4.65625 -3.4375 C 5.164062 -2.78125 5.957031 -2.453125 7.03125 -2.453125 C 8.101562 -2.453125 8.894531 -2.78125 9.40625 -3.4375 C 9.914062 -4.101562 10.171875 -5.046875 10.171875 -6.265625 C 10.171875 -7.265625 9.945312 -8.125 9.5 -8.84375 C 9.050781 -9.570312 8.492188 -10.25 7.828125 -10.875 C 7.171875 -11.5 6.457031 -12.109375 5.6875 -12.703125 C 4.925781 -13.304688 4.210938 -13.960938 3.546875 -14.671875 C 2.890625 -15.390625 2.335938 -16.203125 1.890625 -17.109375 C 1.441406 -18.015625 1.21875 -19.09375 1.21875 -20.34375 C 1.21875 -22.40625 1.703125 -24.035156 2.671875 -25.234375 C 3.640625 -26.429688 5.132812 -27.03125 7.15625 -27.03125 Z M 7.15625 -27.03125 "/></g></g></g><g fill="#ffffff" fill-opacity="1"><g transform="translate(876.465603, 569.458321)"><g><path d="M 11.046875 -14.90625 L 11.046875 -12.234375 L 4.515625 -12.234375 L 4.515625 -2.71875 L 12.546875 -2.71875 L 12.546875 0 L 1.53125 0 L 1.53125 -26.765625 L 12.546875 -26.765625 L 12.546875 -24.046875 L 4.515625 -24.046875 L 4.515625 -14.90625 Z M 11.046875 -14.90625 "/></g></g></g><g fill="#ffffff" fill-opacity="1"><g transform="translate(890.226864, 569.458321)"><g><path d="M 7.5 -26.765625 C 9.613281 -26.765625 11.132812 -26.238281 12.0625 -25.1875 C 12.988281 -24.144531 13.453125 -22.628906 13.453125 -20.640625 L 13.453125 -18.46875 C 13.453125 -16.988281 13.1875 -15.789062 12.65625 -14.875 C 12.125 -13.957031 11.28125 -13.320312 10.125 -12.96875 C 11.351562 -12.601562 12.222656 -11.941406 12.734375 -10.984375 C 13.242188 -10.035156 13.5 -8.832031 13.5 -7.375 L 13.5 -3.21875 C 13.5 -2.625 13.523438 -2.050781 13.578125 -1.5 C 13.628906 -0.957031 13.78125 -0.457031 14.03125 0 L 11.015625 0 C 10.835938 -0.382812 10.707031 -0.796875 10.625 -1.234375 C 10.550781 -1.679688 10.515625 -2.351562 10.515625 -3.25 L 10.515625 -7.453125 C 10.515625 -8.960938 10.175781 -10.003906 9.5 -10.578125 C 8.820312 -11.148438 7.859375 -11.4375 6.609375 -11.4375 L 4.515625 -11.4375 L 4.515625 0 L 1.53125 0 L 1.53125 -26.765625 Z M 6.734375 -14.140625 C 7.929688 -14.140625 8.859375 -14.390625 9.515625 -14.890625 C 10.179688 -15.390625 10.515625 -16.363281 10.515625 -17.8125 L 10.515625 -20.375 C 10.515625 -21.601562 10.273438 -22.519531 9.796875 -23.125 C 9.328125 -23.738281 8.535156 -24.046875 7.421875 -24.046875 L 4.515625 -24.046875 L 4.515625 -14.140625 Z M 6.734375 -14.140625 "/></g></g></g><g fill="#ffffff" fill-opacity="1"><g transform="translate(905.287779, 569.458321)"><g><path d="M 11.65625 -32.109375 L 8.140625 -28.171875 L 6.046875 -28.171875 L 8.71875 -32.109375 Z M 4.546875 -5.390625 L 3.515625 0 L 0.765625 0 L 5.890625 -26.765625 L 10.203125 -26.765625 L 15.328125 0 L 12.34375 0 L 11.3125 -5.390625 Z M 4.9375 -7.953125 L 10.890625 -7.953125 L 7.875 -23.40625 Z M 4.9375 -7.953125 "/></g></g></g><g fill="#ffffff" fill-opacity="1"><g transform="translate(921.419035, 569.458321)"><g/></g></g><g fill="#ffffff" fill-opacity="1"><g transform="translate(927.344035, 569.458321)"><g><path d="M 4.515625 -26.765625 L 4.515625 0 L 1.53125 0 L 1.53125 -26.765625 Z M 4.515625 -26.765625 "/></g></g></g><g fill="#ffffff" fill-opacity="1"><g transform="translate(933.383677, 569.458321)"><g><path d="M 11.390625 -0.03125 L 8.53125 -0.03125 L 4.09375 -21.328125 L 4.09375 0 L 1.484375 0 L 1.484375 -26.765625 L 5.65625 -26.765625 L 10.0625 -5.390625 L 14.296875 -26.765625 L 18.46875 -26.765625 L 18.46875 0 L 15.640625 0 L 15.640625 -21.53125 Z M 11.390625 -0.03125 "/></g></g></g><g fill="#ffffff" fill-opacity="1"><g transform="translate(953.375742, 569.458321)"><g><path d="M 11.046875 -14.90625 L 11.046875 -12.234375 L 4.515625 -12.234375 L 4.515625 -2.71875 L 12.546875 -2.71875 L 12.546875 0 L 1.53125 0 L 1.53125 -26.765625 L 12.546875 -26.765625 L 12.546875 -24.046875 L 4.515625 -24.046875 L 4.515625 -14.90625 Z M 11.046875 -14.90625 "/></g></g></g><g fill="#ffffff" fill-opacity="1"><g transform="translate(967.137003, 569.458321)"><g><path d="M 7.796875 -26.765625 C 9.890625 -26.765625 11.425781 -26.171875 12.40625 -24.984375 C 13.382812 -23.796875 13.875 -22.171875 13.875 -20.109375 L 13.875 -6.609375 C 13.875 -4.546875 13.382812 -2.925781 12.40625 -1.75 C 11.425781 -0.582031 9.890625 0 7.796875 0 L 1.53125 0 L 1.53125 -26.765625 Z M 7.765625 -2.71875 C 8.835938 -2.71875 9.632812 -3.039062 10.15625 -3.6875 C 10.675781 -4.34375 10.9375 -5.28125 10.9375 -6.5 L 10.9375 -20.265625 C 10.9375 -21.484375 10.675781 -22.414062 10.15625 -23.0625 C 9.632812 -23.71875 8.820312 -24.046875 7.71875 -24.046875 L 4.515625 -24.046875 L 4.515625 -2.71875 Z M 7.765625 -2.71875 "/></g></g></g><g fill="#ffffff" fill-opacity="1"><g transform="translate(982.274354, 569.458321)"><g><path d="M 4.515625 -26.765625 L 4.515625 0 L 1.53125 0 L 1.53125 -26.765625 Z M 4.515625 -26.765625 "/></g></g></g><g fill="#ffffff" fill-opacity="1"><g transform="translate(988.314024, 569.458321)"><g><path d="M 4.546875 -5.390625 L 3.515625 0 L 0.765625 0 L 5.890625 -26.765625 L 10.203125 -26.765625 L 15.328125 0 L 12.34375 0 L 11.3125 -5.390625 Z M 4.9375 -7.953125 L 10.890625 -7.953125 L 7.875 -23.40625 Z M 4.9375 -7.953125 "/></g></g></g><g fill="#ffffff" fill-opacity="1"><g transform="translate(1002.99256, 569.458321)"><g><path d="M 5.390625 0 L 5.390625 -24.046875 L 0.453125 -24.046875 L 0.453125 -26.765625 L 13.265625 -26.765625 L 13.265625 -24.046875 L 8.328125 -24.046875 L 8.328125 0 Z M 5.390625 0 "/></g></g></g><g fill="#ffffff" fill-opacity="1"><g transform="translate(1015.301129, 569.458321)"><g><path d="M 4.546875 -5.390625 L 3.515625 0 L 0.765625 0 L 5.890625 -26.765625 L 10.203125 -26.765625 L 15.328125 0 L 12.34375 0 L 11.3125 -5.390625 Z M 4.9375 -7.953125 L 10.890625 -7.953125 L 7.875 -23.40625 Z M 4.9375 -7.953125 "/></g></g></g><g fill="#ffffff" fill-opacity="1"><g transform="translate(1031.432385, 569.458321)"><g><path d="M 11.390625 -0.03125 L 8.53125 -0.03125 L 4.09375 -21.328125 L 4.09375 0 L 1.484375 0 L 1.484375 -26.765625 L 5.65625 -26.765625 L 10.0625 -5.390625 L 14.296875 -26.765625 L 18.46875 -26.765625 L 18.46875 0 L 15.640625 0 L 15.640625 -21.53125 Z M 11.390625 -0.03125 "/></g></g></g><g fill="#ffffff" fill-opacity="1"><g transform="translate(1051.42445, 569.458321)"><g><path d="M 11.046875 -14.90625 L 11.046875 -12.234375 L 4.515625 -12.234375 L 4.515625 -2.71875 L 12.546875 -2.71875 L 12.546875 0 L 1.53125 0 L 1.53125 -26.765625 L 12.546875 -26.765625 L 12.546875 -24.046875 L 4.515625 -24.046875 L 4.515625 -14.90625 Z M 11.046875 -14.90625 "/></g></g></g><g fill="#ffffff" fill-opacity="1"><g transform="translate(1065.185684, 569.458321)"><g><path d="M 4.171875 0 L 1.484375 0 L 1.484375 -26.765625 L 5.28125 -26.765625 L 11.46875 -7.421875 L 11.46875 -26.765625 L 14.109375 -26.765625 L 14.109375 0 L 11.015625 0 L 4.171875 -21.640625 Z M 4.171875 0 "/></g></g></g><g fill="#ffffff" fill-opacity="1"><g transform="translate(1080.820028, 569.458321)"><g><path d="M 5.390625 0 L 5.390625 -24.046875 L 0.453125 -24.046875 L 0.453125 -26.765625 L 13.265625 -26.765625 L 13.265625 -24.046875 L 8.328125 -24.046875 L 8.328125 0 Z M 5.390625 0 "/></g></g></g><g fill="#ffffff" fill-opacity="1"><g transform="translate(1094.581262, 569.458321)"><g><path d="M 11.046875 -14.90625 L 11.046875 -12.234375 L 4.515625 -12.234375 L 4.515625 -2.71875 L 12.546875 -2.71875 L 12.546875 0 L 1.53125 0 L 1.53125 -26.765625 L 12.546875 -26.765625 L 12.546875 -24.046875 L 4.515625 -24.046875 L 4.515625 -14.90625 Z M 11.046875 -14.90625 "/></g></g></g><g fill="#ffffff" fill-opacity="1"><g transform="translate(1108.34255, 569.458321)"><g/></g></g><g fill="#ffffff" fill-opacity="1"><g transform="translate(1114.267523, 569.458321)"><g><path d="M 11.046875 -14.90625 L 11.046875 -12.234375 L 4.515625 -12.234375 L 4.515625 -2.71875 L 12.546875 -2.71875 L 12.546875 0 L 1.53125 0 L 1.53125 -26.765625 L 12.546875 -26.765625 L 12.546875 -24.046875 L 4.515625 -24.046875 L 4.515625 -14.90625 Z M 11.046875 -14.90625 "/></g></g></g><g fill="#ffffff" fill-opacity="1"><g transform="translate(1128.028811, 569.458321)"><g><path d="M 1.53125 0 L 1.53125 -26.765625 L 4.515625 -26.765625 L 4.515625 -2.71875 L 12.15625 -2.71875 L 12.15625 0 Z M 1.53125 0 "/></g></g></g><g fill="#ffffff" fill-opacity="1"><g transform="translate(1140.910865, 569.458321)"><g><path d="M 4.515625 -26.765625 L 4.515625 0 L 1.53125 0 L 1.53125 -26.765625 Z M 4.515625 -26.765625 "/></g></g></g><g fill="#ffffff" fill-opacity="1"><g transform="translate(1146.950535, 569.458321)"><g><path d="M 11.390625 -0.03125 L 8.53125 -0.03125 L 4.09375 -21.328125 L 4.09375 0 L 1.484375 0 L 1.484375 -26.765625 L 5.65625 -26.765625 L 10.0625 -5.390625 L 14.296875 -26.765625 L 18.46875 -26.765625 L 18.46875 0 L 15.640625 0 L 15.640625 -21.53125 Z M 11.390625 -0.03125 "/></g></g></g><g fill="#ffffff" fill-opacity="1"><g transform="translate(1166.942545, 569.458321)"><g><path d="M 4.515625 -26.765625 L 4.515625 0 L 1.53125 0 L 1.53125 -26.765625 Z M 4.515625 -26.765625 "/></g></g></g><g fill="#ffffff" fill-opacity="1"><g transform="translate(1172.982215, 569.458321)"><g><path d="M 4.171875 0 L 1.484375 0 L 1.484375 -26.765625 L 5.28125 -26.765625 L 11.46875 -7.421875 L 11.46875 -26.765625 L 14.109375 -26.765625 L 14.109375 0 L 11.015625 0 L 4.171875 -21.640625 Z M 4.171875 0 "/></g></g></g><g fill="#ffffff" fill-opacity="1"><g transform="translate(1188.616559, 569.458321)"><g><path d="M 4.546875 -5.390625 L 3.515625 0 L 0.765625 0 L 5.890625 -26.765625 L 10.203125 -26.765625 L 15.328125 0 L 12.34375 0 L 11.3125 -5.390625 Z M 4.9375 -7.953125 L 10.890625 -7.953125 L 7.875 -23.40625 Z M 4.9375 -7.953125 "/></g></g></g><g fill="#ffffff" fill-opacity="1"><g transform="translate(1204.747815, 569.458321)"><g><path d="M 7.796875 -26.765625 C 9.890625 -26.765625 11.425781 -26.171875 12.40625 -24.984375 C 13.382812 -23.796875 13.875 -22.171875 13.875 -20.109375 L 13.875 -6.609375 C 13.875 -4.546875 13.382812 -2.925781 12.40625 -1.75 C 11.425781 -0.582031 9.890625 0 7.796875 0 L 1.53125 0 L 1.53125 -26.765625 Z M 7.765625 -2.71875 C 8.835938 -2.71875 9.632812 -3.039062 10.15625 -3.6875 C 10.675781 -4.34375 10.9375 -5.28125 10.9375 -6.5 L 10.9375 -20.265625 C 10.9375 -21.484375 10.675781 -22.414062 10.15625 -23.0625 C 9.632812 -23.71875 8.820312 -24.046875 7.71875 -24.046875 L 4.515625 -24.046875 L 4.515625 -2.71875 Z M 7.765625 -2.71875 "/></g></g></g><g fill="#ffffff" fill-opacity="1"><g transform="translate(1219.885194, 569.458321)"><g><path d="M 1.296875 -20.296875 C 1.296875 -22.367188 1.800781 -24.007812 2.8125 -25.21875 C 3.820312 -26.425781 5.359375 -27.03125 7.421875 -27.03125 C 9.484375 -27.03125 11.023438 -26.425781 12.046875 -25.21875 C 13.066406 -24.007812 13.578125 -22.367188 13.578125 -20.296875 L 13.578125 -6.46875 C 13.578125 -4.425781 13.066406 -2.789062 12.046875 -1.5625 C 11.023438 -0.34375 9.484375 0.265625 7.421875 0.265625 C 5.359375 0.265625 3.820312 -0.34375 2.8125 -1.5625 C 1.800781 -2.789062 1.296875 -4.425781 1.296875 -6.46875 Z M 4.25 -6.3125 C 4.25 -5.082031 4.507812 -4.128906 5.03125 -3.453125 C 5.550781 -2.785156 6.347656 -2.453125 7.421875 -2.453125 C 8.515625 -2.453125 9.316406 -2.785156 9.828125 -3.453125 C 10.335938 -4.128906 10.59375 -5.082031 10.59375 -6.3125 L 10.59375 -20.453125 C 10.59375 -21.679688 10.335938 -22.628906 9.828125 -23.296875 C 9.316406 -23.972656 8.515625 -24.3125 7.421875 -24.3125 C 6.347656 -24.3125 5.550781 -23.972656 5.03125 -23.296875 C 4.507812 -22.628906 4.25 -21.679688 4.25 -20.453125 Z M 4.25 -6.3125 "/></g></g></g><g fill="#ffffff" fill-opacity="1"><g transform="translate(1234.755002, 569.458321)"><g/></g></g><g fill="#ffffff" fill-opacity="1"><g transform="translate(1240.679974, 569.458321)"><g><path d="M 7.796875 -26.765625 C 9.890625 -26.765625 11.425781 -26.171875 12.40625 -24.984375 C 13.382812 -23.796875 13.875 -22.171875 13.875 -20.109375 L 13.875 -6.609375 C 13.875 -4.546875 13.382812 -2.925781 12.40625 -1.75 C 11.425781 -0.582031 9.890625 0 7.796875 0 L 1.53125 0 L 1.53125 -26.765625 Z M 7.765625 -2.71875 C 8.835938 -2.71875 9.632812 -3.039062 10.15625 -3.6875 C 10.675781 -4.34375 10.9375 -5.28125 10.9375 -6.5 L 10.9375 -20.265625 C 10.9375 -21.484375 10.675781 -22.414062 10.15625 -23.0625 C 9.632812 -23.71875 8.820312 -24.046875 7.71875 -24.046875 L 4.515625 -24.046875 L 4.515625 -2.71875 Z M 7.765625 -2.71875 "/></g></g></g><g fill="#ffffff" fill-opacity="1"><g transform="translate(1255.817353, 569.458321)"><g><path d="M 1.296875 -20.296875 C 1.296875 -22.367188 1.800781 -24.007812 2.8125 -25.21875 C 3.820312 -26.425781 5.359375 -27.03125 7.421875 -27.03125 C 9.484375 -27.03125 11.023438 -26.425781 12.046875 -25.21875 C 13.066406 -24.007812 13.578125 -22.367188 13.578125 -20.296875 L 13.578125 -6.46875 C 13.578125 -4.425781 13.066406 -2.789062 12.046875 -1.5625 C 11.023438 -0.34375 9.484375 0.265625 7.421875 0.265625 C 5.359375 0.265625 3.820312 -0.34375 2.8125 -1.5625 C 1.800781 -2.789062 1.296875 -4.425781 1.296875 -6.46875 Z M 4.25 -6.3125 C 4.25 -5.082031 4.507812 -4.128906 5.03125 -3.453125 C 5.550781 -2.785156 6.347656 -2.453125 7.421875 -2.453125 C 8.515625 -2.453125 9.316406 -2.785156 9.828125 -3.453125 C 10.335938 -4.128906 10.59375 -5.082031 10.59375 -6.3125 L 10.59375 -20.453125 C 10.59375 -21.679688 10.335938 -22.628906 9.828125 -23.296875 C 9.316406 -23.972656 8.515625 -24.3125 7.421875 -24.3125 C 6.347656 -24.3125 5.550781 -23.972656 5.03125 -23.296875 C 4.507812 -22.628906 4.25 -21.679688 4.25 -20.453125 Z M 4.25 -6.3125 "/></g></g></g><g fill="#ffffff" fill-opacity="1"><g transform="translate(1270.687161, 569.458321)"><g/></g></g><g fill="#ffffff" fill-opacity="1"><g transform="translate(1276.612133, 569.458321)"><g><path d="M 5.390625 0 L 5.390625 -24.046875 L 0.453125 -24.046875 L 0.453125 -26.765625 L 13.265625 -26.765625 L 13.265625 -24.046875 L 8.328125 -24.046875 L 8.328125 0 Z M 5.390625 0 "/></g></g></g><g fill="#ffffff" fill-opacity="1"><g transform="translate(1290.373421, 569.458321)"><g><path d="M 1.296875 -20.296875 C 1.296875 -22.367188 1.800781 -24.007812 2.8125 -25.21875 C 3.820312 -26.425781 5.359375 -27.03125 7.421875 -27.03125 C 9.484375 -27.03125 11.023438 -26.425781 12.046875 -25.21875 C 13.066406 -24.007812 13.578125 -22.367188 13.578125 -20.296875 L 13.578125 -6.46875 C 13.578125 -4.425781 13.066406 -2.789062 12.046875 -1.5625 C 11.023438 -0.34375 9.484375 0.265625 7.421875 0.265625 C 5.359375 0.265625 3.820312 -0.34375 2.8125 -1.5625 C 1.800781 -2.789062 1.296875 -4.425781 1.296875 -6.46875 Z M 4.25 -6.3125 C 4.25 -5.082031 4.507812 -4.128906 5.03125 -3.453125 C 5.550781 -2.785156 6.347656 -2.453125 7.421875 -2.453125 C 8.515625 -2.453125 9.316406 -2.785156 9.828125 -3.453125 C 10.335938 -4.128906 10.59375 -5.082031 10.59375 -6.3125 L 10.59375 -20.453125 C 10.59375 -21.679688 10.335938 -22.628906 9.828125 -23.296875 C 9.316406 -23.972656 8.515625 -24.3125 7.421875 -24.3125 C 6.347656 -24.3125 5.550781 -23.972656 5.03125 -23.296875 C 4.507812 -22.628906 4.25 -21.679688 4.25 -20.453125 Z M 4.25 -6.3125 "/></g></g></g><g fill="#ffffff" fill-opacity="1"><g transform="translate(1305.243229, 569.458321)"><g><path d="M 7.5 -26.765625 C 9.613281 -26.765625 11.132812 -26.238281 12.0625 -25.1875 C 12.988281 -24.144531 13.453125 -22.628906 13.453125 -20.640625 L 13.453125 -18.46875 C 13.453125 -16.988281 13.1875 -15.789062 12.65625 -14.875 C 12.125 -13.957031 11.28125 -13.320312 10.125 -12.96875 C 11.351562 -12.601562 12.222656 -11.941406 12.734375 -10.984375 C 13.242188 -10.035156 13.5 -8.832031 13.5 -7.375 L 13.5 -3.21875 C 13.5 -2.625 13.523438 -2.050781 13.578125 -1.5 C 13.628906 -0.957031 13.78125 -0.457031 14.03125 0 L 11.015625 0 C 10.835938 -0.382812 10.707031 -0.796875 10.625 -1.234375 C 10.550781 -1.679688 10.515625 -2.351562 10.515625 -3.25 L 10.515625 -7.453125 C 10.515625 -8.960938 10.175781 -10.003906 9.5 -10.578125 C 8.820312 -11.148438 7.859375 -11.4375 6.609375 -11.4375 L 4.515625 -11.4375 L 4.515625 0 L 1.53125 0 L 1.53125 -26.765625 Z M 6.734375 -14.140625 C 7.929688 -14.140625 8.859375 -14.390625 9.515625 -14.890625 C 10.179688 -15.390625 10.515625 -16.363281 10.515625 -17.8125 L 10.515625 -20.375 C 10.515625 -21.601562 10.273438 -22.519531 9.796875 -23.125 C 9.328125 -23.738281 8.535156 -24.046875 7.421875 -24.046875 L 4.515625 -24.046875 L 4.515625 -14.140625 Z M 6.734375 -14.140625 "/></g></g></g><g fill="#ffffff" fill-opacity="1"><g transform="translate(1320.304143, 569.458321)"><g><path d="M 4.171875 0 L 1.484375 0 L 1.484375 -26.765625 L 5.28125 -26.765625 L 11.46875 -7.421875 L 11.46875 -26.765625 L 14.109375 -26.765625 L 14.109375 0 L 11.015625 0 L 4.171875 -21.640625 Z M 4.171875 0 "/></g></g></g><g fill="#ffffff" fill-opacity="1"><g transform="translate(1335.938433, 569.458321)"><g><path d="M 11.046875 -14.90625 L 11.046875 -12.234375 L 4.515625 -12.234375 L 4.515625 -2.71875 L 12.546875 -2.71875 L 12.546875 0 L 1.53125 0 L 1.53125 -26.765625 L 12.546875 -26.765625 L 12.546875 -24.046875 L 4.515625 -24.046875 L 4.515625 -14.90625 Z M 11.046875 -14.90625 "/></g></g></g><g fill="#ffffff" fill-opacity="1"><g transform="translate(1349.699722, 569.458321)"><g><path d="M 4.515625 -26.765625 L 4.515625 0 L 1.53125 0 L 1.53125 -26.765625 Z M 4.515625 -26.765625 "/></g></g></g><g fill="#ffffff" fill-opacity="1"><g transform="translate(1355.739391, 569.458321)"><g><path d="M 1.296875 -20.296875 C 1.296875 -22.367188 1.800781 -24.007812 2.8125 -25.21875 C 3.820312 -26.425781 5.359375 -27.03125 7.421875 -27.03125 C 9.484375 -27.03125 11.023438 -26.425781 12.046875 -25.21875 C 13.066406 -24.007812 13.578125 -22.367188 13.578125 -20.296875 L 13.578125 -6.46875 C 13.578125 -4.425781 13.066406 -2.789062 12.046875 -1.5625 C 11.023438 -0.34375 9.484375 0.265625 7.421875 0.265625 C 5.359375 0.265625 3.820312 -0.34375 2.8125 -1.5625 C 1.800781 -2.789062 1.296875 -4.425781 1.296875 -6.46875 Z M 4.25 -6.3125 C 4.25 -5.082031 4.507812 -4.128906 5.03125 -3.453125 C 5.550781 -2.785156 6.347656 -2.453125 7.421875 -2.453125 C 8.515625 -2.453125 9.316406 -2.785156 9.828125 -3.453125 C 10.335938 -4.128906 10.59375 -5.082031 10.59375 -6.3125 L 10.59375 -20.453125 C 10.59375 -21.679688 10.335938 -22.628906 9.828125 -23.296875 C 9.316406 -23.972656 8.515625 -24.3125 7.421875 -24.3125 C 6.347656 -24.3125 5.550781 -23.972656 5.03125 -23.296875 C 4.507812 -22.628906 4.25 -21.679688 4.25 -20.453125 Z M 4.25 -6.3125 "/></g></g></g><g fill="#ffffff" fill-opacity="1"><g transform="translate(1370.226875, 569.458321)"><g><path d="M 4.390625 -3.703125 L 4.390625 0 L 1.53125 0 L 1.53125 -3.703125 Z M 4.390625 -3.703125 "/></g></g></g></g></g></svg>